<svg width="321" height="86" viewBox="0 0 321 86" fill="none" xmlns="http://www.w3.org/2000/svg">
<rect width="86" height="86" rx="8" fill="#FBF0FD"/>
<path d="M51.3027 38.3451C54.9789 35.4308 59.9123 32.6117 60.8456 33.6213C62.3884 35.2784 62.2551 51.0498 60.8456 52.5546C59.9884 53.4879 55.017 50.6689 51.3027 47.7736" stroke="#CF53DB" stroke-width="2.5" stroke-linecap="round" stroke-linejoin="round"/>
<path fill-rule="evenodd" clip-rule="evenodd" d="M24.0283 43.0742C24.0283 32.6895 27.4778 29.2285 37.8302 29.2285C48.1807 29.2285 51.6302 32.6895 51.6302 43.0742C51.6302 53.4571 48.1807 56.9199 37.8302 56.9199C27.4778 56.9199 24.0283 53.4571 24.0283 43.0742Z" stroke="#CF53DB" stroke-width="2.5" stroke-linecap="round" stroke-linejoin="round"/>
<path d="M103.435 20V5.45455H106.07V17.7912H112.476V20H103.435ZM114.649 20V9.09091H117.22V20H114.649ZM115.942 7.54261C115.535 7.54261 115.184 7.40767 114.891 7.13778C114.597 6.86316 114.45 6.53409 114.45 6.15057C114.45 5.76231 114.597 5.43324 114.891 5.16335C115.184 4.88873 115.535 4.75142 115.942 4.75142C116.354 4.75142 116.704 4.88873 116.993 5.16335C117.286 5.43324 117.433 5.76231 117.433 6.15057C117.433 6.53409 117.286 6.86316 116.993 7.13778C116.704 7.40767 116.354 7.54261 115.942 7.54261ZM129.608 9.09091L125.723 20H122.882L118.998 9.09091H121.739L124.246 17.1946H124.36L126.874 9.09091H129.608ZM135.846 20.2131C134.752 20.2131 133.808 19.9858 133.012 19.5312C132.221 19.072 131.613 18.4233 131.187 17.5852C130.761 16.7424 130.548 15.7505 130.548 14.6094C130.548 13.4872 130.761 12.5024 131.187 11.6548C131.618 10.8026 132.219 10.1397 132.991 9.66619C133.763 9.18797 134.669 8.94886 135.711 8.94886C136.383 8.94886 137.018 9.05777 137.614 9.27557C138.216 9.48864 138.746 9.82008 139.205 10.2699C139.669 10.7197 140.034 11.2926 140.299 11.9886C140.564 12.6799 140.697 13.5038 140.697 14.4602V15.2486H131.755V13.5156H138.232C138.228 13.0232 138.121 12.5852 137.913 12.2017C137.704 11.8134 137.413 11.508 137.039 11.2855C136.67 11.063 136.239 10.9517 135.746 10.9517C135.221 10.9517 134.759 11.0795 134.362 11.3352C133.964 11.5862 133.654 11.9176 133.431 12.3295C133.213 12.7367 133.102 13.1842 133.097 13.6719V15.1847C133.097 15.8191 133.213 16.3636 133.445 16.8182C133.677 17.268 134.002 17.6136 134.418 17.8551C134.835 18.0919 135.323 18.2102 135.881 18.2102C136.255 18.2102 136.594 18.1581 136.897 18.054C137.2 17.9451 137.463 17.7865 137.685 17.5781C137.908 17.3698 138.076 17.1117 138.19 16.804L140.59 17.0739C140.439 17.7083 140.15 18.2623 139.724 18.7358C139.302 19.2045 138.763 19.5691 138.104 19.8295C137.446 20.0852 136.693 20.2131 135.846 20.2131ZM160.397 10.3622H157.74C157.665 9.92661 157.525 9.54072 157.321 9.20455C157.118 8.86364 156.864 8.57481 156.561 8.33807C156.258 8.10133 155.913 7.92377 155.525 7.8054C155.141 7.68229 154.727 7.62074 154.282 7.62074C153.491 7.62074 152.79 7.8196 152.179 8.21733C151.569 8.61032 151.09 9.18797 150.745 9.95028C150.399 10.7079 150.226 11.6335 150.226 12.7273C150.226 13.84 150.399 14.7775 150.745 15.5398C151.095 16.2973 151.573 16.8703 152.179 17.2585C152.79 17.642 153.489 17.8338 154.275 17.8338C154.71 17.8338 155.117 17.777 155.496 17.6634C155.88 17.545 156.223 17.3722 156.526 17.1449C156.834 16.9176 157.092 16.6383 157.3 16.3068C157.513 15.9754 157.66 15.5966 157.74 15.1705L160.397 15.1847C160.297 15.8759 160.082 16.5246 159.75 17.1307C159.424 17.7367 158.995 18.2718 158.465 18.7358C157.935 19.1951 157.314 19.5549 156.604 19.8153C155.894 20.071 155.105 20.1989 154.239 20.1989C152.961 20.1989 151.819 19.9029 150.816 19.3111C149.812 18.7192 149.021 17.8646 148.444 16.7472C147.866 15.6297 147.577 14.2898 147.577 12.7273C147.577 11.16 147.868 9.82008 148.451 8.70739C149.033 7.58996 149.826 6.73532 150.83 6.14347C151.834 5.55161 152.97 5.25568 154.239 5.25568C155.049 5.25568 155.801 5.36932 156.498 5.59659C157.194 5.82386 157.814 6.15767 158.358 6.59801C158.903 7.03362 159.35 7.56866 159.701 8.20312C160.056 8.83286 160.288 9.55256 160.397 10.3622ZM165.267 5.45455V20H162.696V5.45455H165.267ZM171.05 20.2202C170.359 20.2202 169.736 20.0971 169.182 19.8509C168.633 19.5999 168.197 19.2306 167.875 18.7429C167.558 18.2552 167.4 17.6539 167.4 16.9389C167.4 16.3234 167.513 15.8144 167.74 15.4119C167.968 15.0095 168.278 14.6875 168.671 14.446C169.064 14.2045 169.507 14.0223 169.999 13.8991C170.496 13.7713 171.01 13.679 171.54 13.6222C172.179 13.5559 172.698 13.4967 173.096 13.4446C173.493 13.3878 173.782 13.3026 173.962 13.1889C174.147 13.0705 174.239 12.8883 174.239 12.642V12.5994C174.239 12.0644 174.08 11.6501 173.763 11.3565C173.446 11.063 172.989 10.9162 172.392 10.9162C171.763 10.9162 171.263 11.0535 170.894 11.3281C170.529 11.6027 170.283 11.9271 170.155 12.3011L167.755 11.9602C167.944 11.2973 168.257 10.7434 168.692 10.2983C169.128 9.84848 169.66 9.51231 170.29 9.28977C170.92 9.0625 171.616 8.94886 172.378 8.94886C172.904 8.94886 173.427 9.01042 173.948 9.13352C174.469 9.25663 174.944 9.46023 175.375 9.74432C175.806 10.0237 176.152 10.4048 176.412 10.8878C176.677 11.3707 176.81 11.9744 176.81 12.6989V20H174.338V18.5014H174.253C174.097 18.8045 173.877 19.0885 173.593 19.3537C173.313 19.6141 172.961 19.8248 172.534 19.9858C172.113 20.142 171.618 20.2202 171.05 20.2202ZM171.718 18.331C172.234 18.331 172.681 18.2292 173.06 18.0256C173.439 17.8172 173.73 17.5426 173.934 17.2017C174.142 16.8608 174.246 16.4891 174.246 16.0866V14.8011C174.166 14.8674 174.028 14.929 173.834 14.9858C173.645 15.0426 173.432 15.0923 173.195 15.1349C172.958 15.1776 172.724 15.2154 172.492 15.2486C172.26 15.2817 172.059 15.3101 171.888 15.3338C171.505 15.3859 171.161 15.4711 170.858 15.5895C170.555 15.7079 170.316 15.8736 170.141 16.0866C169.966 16.295 169.878 16.5649 169.878 16.8963C169.878 17.3698 170.051 17.7273 170.397 17.9688C170.742 18.2102 171.183 18.331 171.718 18.331ZM188.017 11.9744L185.674 12.2301C185.607 11.9934 185.491 11.7708 185.326 11.5625C185.165 11.3542 184.947 11.1861 184.672 11.0582C184.398 10.9304 184.061 10.8665 183.664 10.8665C183.129 10.8665 182.679 10.9825 182.314 11.2145C181.954 11.4465 181.777 11.7472 181.782 12.1165C181.777 12.4337 181.893 12.6918 182.13 12.8906C182.371 13.0895 182.769 13.2528 183.323 13.3807L185.184 13.7784C186.216 14.0009 186.983 14.3537 187.485 14.8366C187.991 15.3196 188.247 15.9517 188.252 16.733C188.247 17.4195 188.046 18.0256 187.648 18.5511C187.255 19.072 186.708 19.4792 186.007 19.7727C185.307 20.0663 184.502 20.2131 183.593 20.2131C182.257 20.2131 181.183 19.9337 180.368 19.375C179.554 18.8116 179.069 18.0279 178.912 17.0241L181.419 16.7827C181.533 17.2751 181.775 17.6468 182.144 17.8977C182.513 18.1487 182.994 18.2741 183.586 18.2741C184.196 18.2741 184.686 18.1487 185.056 17.8977C185.43 17.6468 185.617 17.3366 185.617 16.9673C185.617 16.6548 185.496 16.3968 185.255 16.1932C185.018 15.9896 184.649 15.8333 184.147 15.7244L182.286 15.3338C181.239 15.116 180.465 14.7491 179.963 14.233C179.462 13.7121 179.213 13.054 179.218 12.2585C179.213 11.5862 179.395 11.0038 179.765 10.5114C180.139 10.0142 180.657 9.63068 181.32 9.3608C181.988 9.08617 182.757 8.94886 183.628 8.94886C184.907 8.94886 185.913 9.22112 186.647 9.76562C187.385 10.3101 187.842 11.0464 188.017 11.9744ZM198.994 11.9744L196.65 12.2301C196.584 11.9934 196.468 11.7708 196.302 11.5625C196.141 11.3542 195.923 11.1861 195.649 11.0582C195.374 10.9304 195.038 10.8665 194.64 10.8665C194.105 10.8665 193.655 10.9825 193.291 11.2145C192.931 11.4465 192.753 11.7472 192.758 12.1165C192.753 12.4337 192.869 12.6918 193.106 12.8906C193.348 13.0895 193.745 13.2528 194.299 13.3807L196.16 13.7784C197.192 14.0009 197.959 14.3537 198.461 14.8366C198.968 15.3196 199.224 15.9517 199.228 16.733C199.224 17.4195 199.022 18.0256 198.625 18.5511C198.232 19.072 197.685 19.4792 196.984 19.7727C196.283 20.0663 195.478 20.2131 194.569 20.2131C193.234 20.2131 192.159 19.9337 191.345 19.375C190.53 18.8116 190.045 18.0279 189.889 17.0241L192.396 16.7827C192.51 17.2751 192.751 17.6468 193.12 17.8977C193.49 18.1487 193.97 18.2741 194.562 18.2741C195.173 18.2741 195.663 18.1487 196.032 17.8977C196.406 17.6468 196.593 17.3366 196.593 16.9673C196.593 16.6548 196.473 16.3968 196.231 16.1932C195.994 15.9896 195.625 15.8333 195.123 15.7244L193.262 15.3338C192.216 15.116 191.442 14.7491 190.94 14.233C190.438 13.7121 190.19 13.054 190.194 12.2585C190.19 11.5862 190.372 11.0038 190.741 10.5114C191.115 10.0142 191.634 9.63068 192.297 9.3608C192.964 9.08617 193.734 8.94886 194.605 8.94886C195.883 8.94886 196.889 9.22112 197.623 9.76562C198.362 10.3101 198.819 11.0464 198.994 11.9744ZM206.178 20.2131C205.084 20.2131 204.14 19.9858 203.344 19.5312C202.553 19.072 201.945 18.4233 201.519 17.5852C201.093 16.7424 200.88 15.7505 200.88 14.6094C200.88 13.4872 201.093 12.5024 201.519 11.6548C201.95 10.8026 202.551 10.1397 203.323 9.66619C204.095 9.18797 205.001 8.94886 206.043 8.94886C206.715 8.94886 207.35 9.05777 207.946 9.27557C208.548 9.48864 209.078 9.82008 209.537 10.2699C210.001 10.7197 210.366 11.2926 210.631 11.9886C210.896 12.6799 211.029 13.5038 211.029 14.4602V15.2486H202.087V13.5156H208.564C208.56 13.0232 208.453 12.5852 208.245 12.2017C208.036 11.8134 207.745 11.508 207.371 11.2855C207.002 11.063 206.571 10.9517 206.078 10.9517C205.553 10.9517 205.091 11.0795 204.694 11.3352C204.296 11.5862 203.986 11.9176 203.763 12.3295C203.545 12.7367 203.434 13.1842 203.429 13.6719V15.1847C203.429 15.8191 203.545 16.3636 203.777 16.8182C204.009 17.268 204.334 17.6136 204.75 17.8551C205.167 18.0919 205.655 18.2102 206.213 18.2102C206.587 18.2102 206.926 18.1581 207.229 18.054C207.532 17.9451 207.795 17.7865 208.017 17.5781C208.24 17.3698 208.408 17.1117 208.522 16.804L210.922 17.0739C210.771 17.7083 210.482 18.2623 210.056 18.7358C209.634 19.2045 209.095 19.5691 208.436 19.8295C207.778 20.0852 207.025 20.2131 206.178 20.2131ZM221.826 11.9744L219.482 12.2301C219.416 11.9934 219.3 11.7708 219.134 11.5625C218.973 11.3542 218.755 11.1861 218.481 11.0582C218.206 10.9304 217.87 10.8665 217.472 10.8665C216.937 10.8665 216.487 10.9825 216.123 11.2145C215.763 11.4465 215.585 11.7472 215.59 12.1165C215.585 12.4337 215.701 12.6918 215.938 12.8906C216.18 13.0895 216.577 13.2528 217.131 13.3807L218.992 13.7784C220.024 14.0009 220.791 14.3537 221.293 14.8366C221.8 15.3196 222.056 15.9517 222.06 16.733C222.056 17.4195 221.854 18.0256 221.457 18.5511C221.064 19.072 220.517 19.4792 219.816 19.7727C219.115 20.0663 218.31 20.2131 217.401 20.2131C216.066 20.2131 214.991 19.9337 214.177 19.375C213.362 18.8116 212.877 18.0279 212.721 17.0241L215.228 16.7827C215.342 17.2751 215.583 17.6468 215.952 17.8977C216.322 18.1487 216.802 18.2741 217.394 18.2741C218.005 18.2741 218.495 18.1487 218.864 17.8977C219.238 17.6468 219.425 17.3366 219.425 16.9673C219.425 16.6548 219.305 16.3968 219.063 16.1932C218.826 15.9896 218.457 15.8333 217.955 15.7244L216.094 15.3338C215.048 15.116 214.274 14.7491 213.772 14.233C213.27 13.7121 213.022 13.054 213.026 12.2585C213.022 11.5862 213.204 11.0038 213.573 10.5114C213.947 10.0142 214.466 9.63068 215.129 9.3608C215.796 9.08617 216.566 8.94886 217.437 8.94886C218.715 8.94886 219.721 9.22112 220.455 9.76562C221.194 10.3101 221.651 11.0464 221.826 11.9744ZM233.488 20.2131C232.494 20.2131 231.639 20.0331 230.924 19.6733C230.209 19.3134 229.657 18.8281 229.269 18.2173C228.886 17.6018 228.694 16.9081 228.694 16.1364C228.694 15.554 228.812 15.0379 229.049 14.5881C229.29 14.1383 229.622 13.7216 230.043 13.3381C230.469 12.9545 230.962 12.5734 231.521 12.1946L234.099 10.4403C234.478 10.1941 234.764 9.93371 234.958 9.65909C235.157 9.38447 235.256 9.0625 235.256 8.69318C235.256 8.38068 235.124 8.08475 234.859 7.8054C234.598 7.52604 234.238 7.38636 233.779 7.38636C233.471 7.38636 233.199 7.45975 232.962 7.60653C232.73 7.74858 232.548 7.93561 232.415 8.16761C232.288 8.39962 232.224 8.64583 232.224 8.90625C232.224 9.22348 232.311 9.54545 232.487 9.87216C232.666 10.1989 232.898 10.5374 233.183 10.8878C233.471 11.2382 233.779 11.6098 234.106 12.0028L240.931 20H238.147L232.479 13.5085C232.058 13.0161 231.651 12.5308 231.258 12.0526C230.87 11.5743 230.55 11.0772 230.299 10.5611C230.053 10.0402 229.93 9.4768 229.93 8.87074C229.93 8.18419 230.088 7.57102 230.406 7.03125C230.723 6.48674 231.165 6.05824 231.734 5.74574C232.307 5.43324 232.977 5.27699 233.744 5.27699C234.511 5.27699 235.169 5.4285 235.718 5.73153C236.267 6.03456 236.691 6.43703 236.989 6.93892C237.288 7.44081 237.437 7.98769 237.437 8.57955C237.437 9.2661 237.266 9.88163 236.925 10.4261C236.585 10.9659 236.111 11.456 235.505 11.8963L232.565 14.0483C232.082 14.3987 231.736 14.7538 231.528 15.1136C231.319 15.4687 231.215 15.7718 231.215 16.0227C231.215 16.4062 231.312 16.7543 231.506 17.0668C231.701 17.3793 231.973 17.6302 232.323 17.8196C232.678 18.0043 233.093 18.0966 233.566 18.0966C234.087 18.0966 234.601 17.9806 235.107 17.7486C235.614 17.5118 236.076 17.1757 236.492 16.7401C236.909 16.3045 237.24 15.7836 237.487 15.1776C237.733 14.5668 237.856 13.8897 237.856 13.1463H240.065C240.065 14.0649 239.963 14.8651 239.759 15.5469C239.556 16.224 239.293 16.7969 238.971 17.2656C238.649 17.7296 238.308 18.1013 237.948 18.3807C237.835 18.4612 237.726 18.5417 237.621 18.6222C237.517 18.7027 237.408 18.7831 237.295 18.8636C236.783 19.3277 236.184 19.6686 235.498 19.8864C234.816 20.1042 234.146 20.2131 233.488 20.2131ZM103.435 46V31.4545H108.889C110.007 31.4545 110.944 31.6487 111.702 32.0369C112.464 32.4252 113.039 32.9697 113.428 33.6705C113.821 34.3665 114.017 35.1785 114.017 36.1065C114.017 37.0393 113.818 37.849 113.42 38.5355C113.027 39.2173 112.447 39.7453 111.68 40.1193C110.913 40.4886 109.971 40.6733 108.854 40.6733H104.969V38.4858H108.499C109.152 38.4858 109.687 38.3958 110.104 38.2159C110.52 38.0312 110.828 37.7637 111.027 37.4134C111.231 37.0582 111.332 36.6226 111.332 36.1065C111.332 35.5904 111.231 35.1501 111.027 34.7855C110.823 34.4162 110.513 34.1368 110.097 33.9474C109.68 33.7533 109.143 33.6562 108.484 33.6562H106.07V46H103.435ZM110.949 39.4091L114.55 46H111.609L108.072 39.4091H110.949ZM121.002 46.2131C119.908 46.2131 118.964 45.9858 118.168 45.5312C117.378 45.072 116.769 44.4233 116.343 43.5852C115.917 42.7424 115.704 41.7505 115.704 40.6094C115.704 39.4872 115.917 38.5024 116.343 37.6548C116.774 36.8026 117.375 36.1397 118.147 35.6662C118.919 35.188 119.826 34.9489 120.867 34.9489C121.54 34.9489 122.174 35.0578 122.771 35.2756C123.372 35.4886 123.902 35.8201 124.362 36.2699C124.826 36.7197 125.19 37.2926 125.455 37.9886C125.72 38.6799 125.853 39.5038 125.853 40.4602V41.2486H116.911V39.5156H123.388C123.384 39.0232 123.277 38.5852 123.069 38.2017C122.861 37.8134 122.569 37.508 122.195 37.2855C121.826 37.063 121.395 36.9517 120.903 36.9517C120.377 36.9517 119.915 37.0795 119.518 37.3352C119.12 37.5862 118.81 37.9176 118.587 38.3295C118.37 38.7367 118.258 39.1842 118.254 39.6719V41.1847C118.254 41.8191 118.37 42.3636 118.602 42.8182C118.834 43.268 119.158 43.6136 119.575 43.8551C119.991 44.0919 120.479 44.2102 121.038 44.2102C121.412 44.2102 121.75 44.1581 122.053 44.054C122.356 43.9451 122.619 43.7865 122.842 43.5781C123.064 43.3698 123.232 43.1117 123.346 42.804L125.746 43.0739C125.595 43.7083 125.306 44.2623 124.88 44.7358C124.459 45.2045 123.919 45.5691 123.261 45.8295C122.603 46.0852 121.85 46.2131 121.002 46.2131ZM132.787 46.2131C131.698 46.2131 130.762 45.974 129.981 45.4957C129.205 45.0175 128.606 44.357 128.184 43.5142C127.768 42.6667 127.559 41.6913 127.559 40.5881C127.559 39.4801 127.772 38.5024 128.199 37.6548C128.625 36.8026 129.226 36.1397 130.002 35.6662C130.784 35.188 131.707 34.9489 132.772 34.9489C133.658 34.9489 134.441 35.1122 135.123 35.4389C135.81 35.7609 136.357 36.2178 136.764 36.8097C137.171 37.3968 137.403 38.0833 137.46 38.8693H135.002C134.903 38.3437 134.666 37.9058 134.292 37.5554C133.923 37.2003 133.428 37.0227 132.808 37.0227C132.282 37.0227 131.821 37.1648 131.423 37.4489C131.025 37.7282 130.715 38.1307 130.493 38.6562C130.275 39.1818 130.166 39.8116 130.166 40.5455C130.166 41.2888 130.275 41.928 130.493 42.4631C130.71 42.9934 131.016 43.4029 131.409 43.6918C131.806 43.9759 132.273 44.1179 132.808 44.1179C133.187 44.1179 133.525 44.0469 133.824 43.9048C134.127 43.758 134.38 43.5473 134.583 43.2727C134.787 42.9981 134.927 42.6643 135.002 42.2713H137.46C137.398 43.0431 137.171 43.7273 136.778 44.3239C136.385 44.9157 135.85 45.3797 135.173 45.7159C134.496 46.0473 133.7 46.2131 132.787 46.2131ZM144.33 46.2131C143.264 46.2131 142.341 45.9787 141.56 45.5099C140.778 45.0412 140.172 44.3854 139.741 43.5426C139.315 42.6998 139.102 41.715 139.102 40.5881C139.102 39.4612 139.315 38.474 139.741 37.6264C140.172 36.7789 140.778 36.1207 141.56 35.652C142.341 35.1832 143.264 34.9489 144.33 34.9489C145.395 34.9489 146.318 35.1832 147.099 35.652C147.881 36.1207 148.484 36.7789 148.911 37.6264C149.341 38.474 149.557 39.4612 149.557 40.5881C149.557 41.715 149.341 42.6998 148.911 43.5426C148.484 44.3854 147.881 45.0412 147.099 45.5099C146.318 45.9787 145.395 46.2131 144.33 46.2131ZM144.344 44.1534C144.921 44.1534 145.404 43.9948 145.793 43.6776C146.181 43.3556 146.47 42.9247 146.659 42.3849C146.853 41.8452 146.95 41.2438 146.95 40.581C146.95 39.9134 146.853 39.3097 146.659 38.7699C146.47 38.2254 146.181 37.7921 145.793 37.4702C145.404 37.1482 144.921 36.9872 144.344 36.9872C143.752 36.9872 143.259 37.1482 142.866 37.4702C142.478 37.7921 142.187 38.2254 141.993 38.7699C141.804 39.3097 141.709 39.9134 141.709 40.581C141.709 41.2438 141.804 41.8452 141.993 42.3849C142.187 42.9247 142.478 43.3556 142.866 43.6776C143.259 43.9948 143.752 44.1534 144.344 44.1534ZM151.739 46V35.0909H154.232V36.9091H154.346C154.544 36.2794 154.885 35.794 155.368 35.4531C155.856 35.1075 156.412 34.9347 157.037 34.9347C157.179 34.9347 157.338 34.9418 157.513 34.956C157.693 34.9654 157.842 34.982 157.961 35.0057V37.3707C157.852 37.3329 157.679 37.2997 157.442 37.2713C157.21 37.2382 156.985 37.2216 156.767 37.2216C156.299 37.2216 155.877 37.3234 155.503 37.527C155.134 37.7259 154.843 38.0028 154.63 38.358C154.417 38.7131 154.31 39.1226 154.31 39.5866V46H151.739ZM163.268 46.1918C162.411 46.1918 161.644 45.9716 160.967 45.5312C160.29 45.0909 159.754 44.4517 159.362 43.6136C158.969 42.7756 158.772 41.7576 158.772 40.5597C158.772 39.3475 158.971 38.3248 159.369 37.4915C159.771 36.6534 160.313 36.0213 160.995 35.5952C161.677 35.1643 162.437 34.9489 163.275 34.9489C163.914 34.9489 164.44 35.0578 164.852 35.2756C165.263 35.4886 165.59 35.7467 165.832 36.0497C166.073 36.348 166.26 36.6297 166.393 36.8949H166.499V31.4545H169.077V46H166.549V44.2812H166.393C166.26 44.5464 166.068 44.8281 165.817 45.1264C165.567 45.42 165.235 45.6709 164.823 45.8793C164.411 46.0876 163.893 46.1918 163.268 46.1918ZM163.985 44.0824C164.53 44.0824 164.994 43.9356 165.377 43.642C165.761 43.3437 166.052 42.9295 166.251 42.3991C166.45 41.8688 166.549 41.2509 166.549 40.5455C166.549 39.84 166.45 39.2268 166.251 38.706C166.057 38.1851 165.768 37.7803 165.384 37.4915C165.005 37.2027 164.539 37.0582 163.985 37.0582C163.412 37.0582 162.934 37.2074 162.55 37.5057C162.167 37.804 161.878 38.2159 161.684 38.7415C161.49 39.267 161.393 39.8684 161.393 40.5455C161.393 41.2273 161.49 41.8357 161.684 42.3707C161.883 42.901 162.174 43.3201 162.558 43.6278C162.946 43.9309 163.422 44.0824 163.985 44.0824ZM176.647 46.2131C175.553 46.2131 174.608 45.9858 173.813 45.5312C173.022 45.072 172.414 44.4233 171.988 43.5852C171.561 42.7424 171.348 41.7505 171.348 40.6094C171.348 39.4872 171.561 38.5024 171.988 37.6548C172.418 36.8026 173.02 36.1397 173.792 35.6662C174.563 35.188 175.47 34.9489 176.512 34.9489C177.184 34.9489 177.819 35.0578 178.415 35.2756C179.016 35.4886 179.547 35.8201 180.006 36.2699C180.47 36.7197 180.835 37.2926 181.1 37.9886C181.365 38.6799 181.498 39.5038 181.498 40.4602V41.2486H172.556V39.5156H179.033C179.028 39.0232 178.922 38.5852 178.713 38.2017C178.505 37.8134 178.214 37.508 177.84 37.2855C177.471 37.063 177.04 36.9517 176.547 36.9517C176.022 36.9517 175.56 37.0795 175.162 37.3352C174.765 37.5862 174.454 37.9176 174.232 38.3295C174.014 38.7367 173.903 39.1842 173.898 39.6719V41.1847C173.898 41.8191 174.014 42.3636 174.246 42.8182C174.478 43.268 174.802 43.6136 175.219 43.8551C175.636 44.0919 176.123 44.2102 176.682 44.2102C177.056 44.2102 177.395 44.1581 177.698 44.054C178.001 43.9451 178.264 43.7865 178.486 43.5781C178.709 43.3698 178.877 43.1117 178.99 42.804L181.391 43.0739C181.239 43.7083 180.951 44.2623 180.525 44.7358C180.103 45.2045 179.563 45.5691 178.905 45.8295C178.247 46.0852 177.494 46.2131 176.647 46.2131ZM187.721 46.1918C186.864 46.1918 186.097 45.9716 185.42 45.5312C184.743 45.0909 184.208 44.4517 183.815 43.6136C183.422 42.7756 183.225 41.7576 183.225 40.5597C183.225 39.3475 183.424 38.3248 183.822 37.4915C184.224 36.6534 184.766 36.0213 185.448 35.5952C186.13 35.1643 186.89 34.9489 187.728 34.9489C188.367 34.9489 188.893 35.0578 189.305 35.2756C189.717 35.4886 190.043 35.7467 190.285 36.0497C190.526 36.348 190.713 36.6297 190.846 36.8949H190.952V31.4545H193.531V46H191.002V44.2812H190.846C190.713 44.5464 190.522 44.8281 190.271 45.1264C190.02 45.42 189.688 45.6709 189.276 45.8793C188.864 46.0876 188.346 46.1918 187.721 46.1918ZM188.438 44.0824C188.983 44.0824 189.447 43.9356 189.83 43.642C190.214 43.3437 190.505 42.9295 190.704 42.3991C190.903 41.8688 191.002 41.2509 191.002 40.5455C191.002 39.84 190.903 39.2268 190.704 38.706C190.51 38.1851 190.221 37.7803 189.837 37.4915C189.459 37.2027 188.992 37.0582 188.438 37.0582C187.865 37.0582 187.387 37.2074 187.004 37.5057C186.62 37.804 186.331 38.2159 186.137 38.7415C185.943 39.267 185.846 39.8684 185.846 40.5455C185.846 41.2273 185.943 41.8357 186.137 42.3707C186.336 42.901 186.627 43.3201 187.011 43.6278C187.399 43.9309 187.875 44.0824 188.438 44.0824ZM201.345 46V31.4545H203.98V43.7912H210.386V46H201.345ZM217.389 46.2131C216.295 46.2131 215.35 45.9858 214.555 45.5312C213.764 45.072 213.156 44.4233 212.73 43.5852C212.304 42.7424 212.091 41.7505 212.091 40.6094C212.091 39.4872 212.304 38.5024 212.73 37.6548C213.161 36.8026 213.762 36.1397 214.534 35.6662C215.306 35.188 216.212 34.9489 217.254 34.9489C217.926 34.9489 218.561 35.0578 219.157 35.2756C219.759 35.4886 220.289 35.8201 220.748 36.2699C221.212 36.7197 221.577 37.2926 221.842 37.9886C222.107 38.6799 222.24 39.5038 222.24 40.4602V41.2486H213.298V39.5156H219.775C219.77 39.0232 219.664 38.5852 219.456 38.2017C219.247 37.8134 218.956 37.508 218.582 37.2855C218.213 37.063 217.782 36.9517 217.289 36.9517C216.764 36.9517 216.302 37.0795 215.904 37.3352C215.507 37.5862 215.197 37.9176 214.974 38.3295C214.756 38.7367 214.645 39.1842 214.64 39.6719V41.1847C214.64 41.8191 214.756 42.3636 214.988 42.8182C215.22 43.268 215.545 43.6136 215.961 43.8551C216.378 44.0919 216.866 44.2102 217.424 44.2102C217.798 44.2102 218.137 44.1581 218.44 44.054C218.743 43.9451 219.006 43.7865 219.228 43.5781C219.451 43.3698 219.619 43.1117 219.733 42.804L222.133 43.0739C221.982 43.7083 221.693 44.2623 221.267 44.7358C220.845 45.2045 220.306 45.5691 219.647 45.8295C218.989 46.0852 218.236 46.2131 217.389 46.2131ZM229.173 46.2131C228.084 46.2131 227.149 45.974 226.368 45.4957C225.591 45.0175 224.992 44.357 224.571 43.5142C224.154 42.6667 223.946 41.6913 223.946 40.5881C223.946 39.4801 224.159 38.5024 224.585 37.6548C225.011 36.8026 225.613 36.1397 226.389 35.6662C227.17 35.188 228.094 34.9489 229.159 34.9489C230.045 34.9489 230.828 35.1122 231.51 35.4389C232.196 35.7609 232.743 36.2178 233.151 36.8097C233.558 37.3968 233.79 38.0833 233.847 38.8693H231.389C231.29 38.3437 231.053 37.9058 230.679 37.5554C230.31 37.2003 229.815 37.0227 229.195 37.0227C228.669 37.0227 228.207 37.1648 227.81 37.4489C227.412 37.7282 227.102 38.1307 226.879 38.6562C226.661 39.1818 226.553 39.8116 226.553 40.5455C226.553 41.2888 226.661 41.928 226.879 42.4631C227.097 42.9934 227.402 43.4029 227.795 43.6918C228.193 43.9759 228.66 44.1179 229.195 44.1179C229.573 44.1179 229.912 44.0469 230.21 43.9048C230.513 43.758 230.767 43.5473 230.97 43.2727C231.174 42.9981 231.313 42.6643 231.389 42.2713H233.847C233.785 43.0431 233.558 43.7273 233.165 44.3239C232.772 44.9157 232.237 45.3797 231.56 45.7159C230.883 46.0473 230.087 46.2131 229.173 46.2131ZM241.405 35.0909V37.0795H235.134V35.0909H241.405ZM236.682 32.4773H239.253V42.7188C239.253 43.0644 239.305 43.3295 239.409 43.5142C239.518 43.6941 239.66 43.8172 239.836 43.8835C240.011 43.9498 240.205 43.983 240.418 43.983C240.579 43.983 240.726 43.9711 240.858 43.9474C240.996 43.9238 241.1 43.9025 241.171 43.8835L241.604 45.8935C241.467 45.9408 241.27 45.9929 241.015 46.0497C240.764 46.1065 240.456 46.1397 240.091 46.1491C239.447 46.1681 238.867 46.071 238.351 45.858C237.835 45.6402 237.426 45.304 237.123 44.8494C236.824 44.3949 236.677 43.8267 236.682 43.1449V32.4773ZM250.509 41.4119V35.0909H253.08V46H250.587V44.0611H250.473C250.227 44.6719 249.822 45.1714 249.259 45.5597C248.7 45.9479 248.011 46.142 247.192 46.142C246.477 46.142 245.845 45.9834 245.295 45.6662C244.751 45.3442 244.325 44.8778 244.017 44.267C243.709 43.6515 243.555 42.9081 243.555 42.0369V35.0909H246.126V41.6392C246.126 42.3305 246.316 42.8797 246.695 43.2869C247.073 43.6941 247.571 43.8977 248.186 43.8977C248.565 43.8977 248.932 43.8054 249.287 43.6207C249.642 43.4361 249.933 43.1615 250.161 42.7969C250.393 42.4276 250.509 41.9659 250.509 41.4119ZM255.723 46V35.0909H258.216V36.9091H258.33C258.529 36.2794 258.87 35.794 259.353 35.4531C259.84 35.1075 260.397 34.9347 261.022 34.9347C261.164 34.9347 261.322 34.9418 261.498 34.956C261.677 34.9654 261.827 34.982 261.945 35.0057V37.3707C261.836 37.3329 261.663 37.2997 261.426 37.2713C261.194 37.2382 260.97 37.2216 260.752 37.2216C260.283 37.2216 259.862 37.3234 259.488 37.527C259.118 37.7259 258.827 38.0028 258.614 38.358C258.401 38.7131 258.294 39.1226 258.294 39.5866V46H255.723ZM268.033 46.2131C266.94 46.2131 265.995 45.9858 265.2 45.5312C264.409 45.072 263.8 44.4233 263.374 43.5852C262.948 42.7424 262.735 41.7505 262.735 40.6094C262.735 39.4872 262.948 38.5024 263.374 37.6548C263.805 36.8026 264.406 36.1397 265.178 35.6662C265.95 35.188 266.857 34.9489 267.898 34.9489C268.571 34.9489 269.205 35.0578 269.802 35.2756C270.403 35.4886 270.933 35.8201 271.393 36.2699C271.857 36.7197 272.221 37.2926 272.487 37.9886C272.752 38.6799 272.884 39.5038 272.884 40.4602V41.2486H263.942V39.5156H270.42C270.415 39.0232 270.308 38.5852 270.1 38.2017C269.892 37.8134 269.601 37.508 269.227 37.2855C268.857 37.063 268.426 36.9517 267.934 36.9517C267.408 36.9517 266.947 37.0795 266.549 37.3352C266.151 37.5862 265.841 37.9176 265.619 38.3295C265.401 38.7367 265.29 39.1842 265.285 39.6719V41.1847C265.285 41.8191 265.401 42.3636 265.633 42.8182C265.865 43.268 266.189 43.6136 266.606 43.8551C267.022 44.0919 267.51 44.2102 268.069 44.2102C268.443 44.2102 268.781 44.1581 269.085 44.054C269.388 43.9451 269.65 43.7865 269.873 43.5781C270.095 43.3698 270.263 43.1117 270.377 42.804L272.778 43.0739C272.626 43.7083 272.337 44.2623 271.911 44.7358C271.49 45.2045 270.95 45.5691 270.292 45.8295C269.634 46.0852 268.881 46.2131 268.033 46.2131ZM283.681 37.9744L281.338 38.2301C281.271 37.9934 281.155 37.7708 280.99 37.5625C280.829 37.3542 280.611 37.1861 280.336 37.0582C280.062 36.9304 279.725 36.8665 279.328 36.8665C278.793 36.8665 278.343 36.9825 277.978 37.2145C277.618 37.4465 277.441 37.7472 277.446 38.1165C277.441 38.4337 277.557 38.6918 277.794 38.8906C278.035 39.0895 278.433 39.2528 278.987 39.3807L280.848 39.7784C281.88 40.0009 282.647 40.3537 283.149 40.8366C283.655 41.3196 283.911 41.9517 283.916 42.733C283.911 43.4195 283.71 44.0256 283.312 44.5511C282.919 45.072 282.372 45.4792 281.672 45.7727C280.971 46.0663 280.166 46.2131 279.257 46.2131C277.922 46.2131 276.847 45.9337 276.032 45.375C275.218 44.8116 274.733 44.0279 274.576 43.0241L277.083 42.7827C277.197 43.2751 277.439 43.6468 277.808 43.8977C278.177 44.1487 278.658 44.2741 279.25 44.2741C279.86 44.2741 280.35 44.1487 280.72 43.8977C281.094 43.6468 281.281 43.3366 281.281 42.9673C281.281 42.6548 281.16 42.3968 280.919 42.1932C280.682 41.9896 280.313 41.8333 279.811 41.7244L277.95 41.3338C276.904 41.116 276.129 40.7491 275.627 40.233C275.126 39.7121 274.877 39.054 274.882 38.2585C274.877 37.5862 275.059 37.0038 275.429 36.5114C275.803 36.0142 276.321 35.6307 276.984 35.3608C277.652 35.0862 278.421 34.9489 279.292 34.9489C280.571 34.9489 281.577 35.2211 282.311 35.7656C283.049 36.3101 283.506 37.0464 283.681 37.9744Z" fill="#0A2134"/>
<path d="M103.321 76V65.0909H107.135C107.895 65.0909 108.522 65.2223 109.015 65.4851C109.509 65.7443 109.876 66.0941 110.118 66.5344C110.359 66.9712 110.48 67.456 110.48 67.9886C110.48 68.4574 110.397 68.8445 110.23 69.1499C110.066 69.4553 109.85 69.6967 109.58 69.8743C109.314 70.0518 109.024 70.1832 108.712 70.2685V70.375C109.045 70.3963 109.381 70.5135 109.718 70.7266C110.056 70.9396 110.338 71.245 110.565 71.6428C110.793 72.0405 110.906 72.527 110.906 73.1023C110.906 73.6491 110.782 74.141 110.533 74.5778C110.285 75.0146 109.892 75.3608 109.356 75.6165C108.82 75.8722 108.122 76 107.263 76H103.321ZM104.642 74.8281H107.263C108.126 74.8281 108.738 74.6612 109.1 74.3274C109.466 73.9901 109.649 73.5817 109.649 73.1023C109.649 72.733 109.555 72.392 109.367 72.0795C109.179 71.7635 108.911 71.5114 108.562 71.3232C108.214 71.1314 107.803 71.0355 107.327 71.0355H104.642V74.8281ZM104.642 69.8849H107.092C107.49 69.8849 107.849 69.8068 108.168 69.6506C108.491 69.4943 108.747 69.2741 108.935 68.9901C109.127 68.706 109.223 68.3722 109.223 67.9886C109.223 67.5092 109.056 67.1026 108.722 66.7688C108.388 66.4315 107.859 66.2628 107.135 66.2628H104.642V69.8849ZM116.337 76.1705C115.548 76.1705 114.868 75.9964 114.297 75.6484C113.729 75.2969 113.29 74.8068 112.981 74.1783C112.676 73.5462 112.523 72.8111 112.523 71.973C112.523 71.1349 112.676 70.3963 112.981 69.7571C113.29 69.1143 113.72 68.6136 114.27 68.255C114.824 67.8928 115.47 67.7116 116.209 67.7116C116.635 67.7116 117.056 67.7827 117.471 67.9247C117.887 68.0668 118.265 68.2976 118.606 68.6172C118.947 68.9332 119.219 69.3523 119.421 69.8743C119.623 70.3963 119.725 71.0391 119.725 71.8026V72.3352H113.418V71.2486H118.446C118.446 70.7869 118.354 70.375 118.169 70.0128C117.988 69.6506 117.729 69.3647 117.392 69.1552C117.058 68.9457 116.664 68.8409 116.209 68.8409C115.708 68.8409 115.275 68.9652 114.909 69.2138C114.547 69.4588 114.268 69.7784 114.073 70.1726C113.878 70.5668 113.78 70.9893 113.78 71.4403V72.1648C113.78 72.7827 113.887 73.3065 114.1 73.7362C114.316 74.1623 114.616 74.4872 115 74.7109C115.383 74.9311 115.829 75.0412 116.337 75.0412C116.667 75.0412 116.965 74.995 117.232 74.9027C117.502 74.8068 117.734 74.6648 117.93 74.4766C118.125 74.2848 118.276 74.0469 118.382 73.7628L119.597 74.1037C119.469 74.5156 119.254 74.8778 118.952 75.1903C118.65 75.4993 118.278 75.7408 117.834 75.9148C117.39 76.0852 116.891 76.1705 116.337 76.1705ZM127.432 69.6506L126.303 69.9702C126.232 69.782 126.127 69.5991 125.989 69.4215C125.854 69.2404 125.669 69.0913 125.435 68.9741C125.2 68.8569 124.9 68.7983 124.535 68.7983C124.034 68.7983 123.617 68.9137 123.283 69.1445C122.953 69.3718 122.787 69.6612 122.787 70.0128C122.787 70.3253 122.901 70.5721 123.128 70.7532C123.356 70.9343 123.711 71.0852 124.194 71.206L125.408 71.5043C126.14 71.6818 126.685 71.9535 127.044 72.3192C127.402 72.6815 127.581 73.1484 127.581 73.7202C127.581 74.1889 127.447 74.608 127.177 74.9773C126.91 75.3466 126.537 75.6378 126.058 75.8509C125.579 76.0639 125.021 76.1705 124.385 76.1705C123.551 76.1705 122.86 75.9893 122.313 75.6271C121.767 75.2649 121.42 74.7358 121.275 74.0398L122.468 73.7415C122.581 74.1818 122.796 74.5121 123.112 74.7322C123.432 74.9524 123.849 75.0625 124.364 75.0625C124.95 75.0625 125.415 74.9382 125.76 74.6896C126.108 74.4375 126.282 74.1357 126.282 73.7841C126.282 73.5 126.182 73.2621 125.983 73.0703C125.785 72.875 125.479 72.7294 125.067 72.6335L123.704 72.3139C122.954 72.1364 122.404 71.8612 122.052 71.4883C121.704 71.1119 121.53 70.6413 121.53 70.0767C121.53 69.6151 121.66 69.2067 121.919 68.8516C122.182 68.4964 122.539 68.2177 122.99 68.0153C123.444 67.8129 123.959 67.7116 124.535 67.7116C125.344 67.7116 125.98 67.8892 126.442 68.2443C126.907 68.5994 127.237 69.0682 127.432 69.6506ZM133.032 67.8182V68.8835H128.792V67.8182H133.032ZM130.028 65.858H131.285V73.6562C131.285 74.0114 131.336 74.2777 131.439 74.4553C131.546 74.6293 131.681 74.7464 131.844 74.8068C132.011 74.8636 132.187 74.892 132.372 74.892C132.51 74.892 132.624 74.8849 132.712 74.8707C132.801 74.853 132.872 74.8388 132.926 74.8281L133.181 75.9574C133.096 75.9893 132.977 76.0213 132.824 76.0533C132.672 76.0888 132.478 76.1065 132.244 76.1065C131.889 76.1065 131.541 76.0302 131.2 75.8775C130.862 75.7248 130.582 75.4922 130.358 75.1797C130.138 74.8672 130.028 74.473 130.028 73.9972V65.858ZM142.466 76.1705C141.727 76.1705 141.079 75.9947 140.521 75.6431C139.967 75.2915 139.534 74.7997 139.222 74.1676C138.913 73.5355 138.758 72.7969 138.758 71.9517C138.758 71.0994 138.913 70.3555 139.222 69.7198C139.534 69.0842 139.967 68.5906 140.521 68.239C141.079 67.8874 141.727 67.7116 142.466 67.7116C143.204 67.7116 143.851 67.8874 144.405 68.239C144.962 68.5906 145.395 69.0842 145.704 69.7198C146.017 70.3555 146.173 71.0994 146.173 71.9517C146.173 72.7969 146.017 73.5355 145.704 74.1676C145.395 74.7997 144.962 75.2915 144.405 75.6431C143.851 75.9947 143.204 76.1705 142.466 76.1705ZM142.466 75.0412C143.027 75.0412 143.488 74.8974 143.851 74.6097C144.213 74.3221 144.481 73.9439 144.655 73.4751C144.829 73.0064 144.916 72.4986 144.916 71.9517C144.916 71.4048 144.829 70.8952 144.655 70.4229C144.481 69.9506 144.213 69.5689 143.851 69.2777C143.488 68.9865 143.027 68.8409 142.466 68.8409C141.905 68.8409 141.443 68.9865 141.081 69.2777C140.718 69.5689 140.45 69.9506 140.276 70.4229C140.102 70.8952 140.015 71.4048 140.015 71.9517C140.015 72.4986 140.102 73.0064 140.276 73.4751C140.45 73.9439 140.718 74.3221 141.081 74.6097C141.443 74.8974 141.905 75.0412 142.466 75.0412ZM151.735 67.8182V68.8835H147.325V67.8182H151.735ZM148.646 76V66.6889C148.646 66.2202 148.756 65.8295 148.976 65.517C149.196 65.2045 149.482 64.9702 149.834 64.8139C150.185 64.6577 150.556 64.5795 150.947 64.5795C151.256 64.5795 151.508 64.6044 151.703 64.6541C151.899 64.7038 152.044 64.75 152.14 64.7926L151.778 65.8793C151.714 65.858 151.625 65.8313 151.512 65.7994C151.402 65.7674 151.256 65.7514 151.075 65.7514C150.659 65.7514 150.359 65.8562 150.175 66.0657C149.994 66.2752 149.903 66.5824 149.903 66.9872V76H148.646ZM157.886 76V65.0909H159.144V69.1179H159.25C159.342 68.9759 159.47 68.7947 159.634 68.5746C159.801 68.3509 160.038 68.152 160.347 67.978C160.66 67.8004 161.082 67.7116 161.615 67.7116C162.304 67.7116 162.911 67.8839 163.437 68.2283C163.962 68.5728 164.373 69.0611 164.667 69.6932C164.962 70.3253 165.109 71.071 165.109 71.9304C165.109 72.7969 164.962 73.5479 164.667 74.1836C164.373 74.8157 163.964 75.3058 163.442 75.6538C162.92 75.9982 162.318 76.1705 161.636 76.1705C161.111 76.1705 160.69 76.0835 160.374 75.9094C160.058 75.7319 159.815 75.5312 159.644 75.3075C159.474 75.0803 159.342 74.892 159.25 74.7429H159.101V76H157.886ZM159.122 71.9091C159.122 72.527 159.213 73.0721 159.394 73.5444C159.575 74.0131 159.84 74.3807 160.188 74.647C160.536 74.9098 160.962 75.0412 161.466 75.0412C161.992 75.0412 162.43 74.9027 162.782 74.6257C163.137 74.3452 163.403 73.9687 163.581 73.4964C163.762 73.0206 163.852 72.4915 163.852 71.9091C163.852 71.3338 163.764 70.8153 163.586 70.3537C163.412 69.8885 163.147 69.521 162.792 69.2511C162.441 68.9776 161.999 68.8409 161.466 68.8409C160.955 68.8409 160.525 68.9705 160.177 69.2298C159.829 69.4854 159.566 69.8441 159.389 70.3058C159.211 70.7638 159.122 71.2983 159.122 71.9091ZM170.356 76.1705C169.618 76.1705 168.97 75.9947 168.412 75.6431C167.858 75.2915 167.425 74.7997 167.112 74.1676C166.803 73.5355 166.649 72.7969 166.649 71.9517C166.649 71.0994 166.803 70.3555 167.112 69.7198C167.425 69.0842 167.858 68.5906 168.412 68.239C168.97 67.8874 169.618 67.7116 170.356 67.7116C171.095 67.7116 171.741 67.8874 172.295 68.239C172.853 68.5906 173.286 69.0842 173.595 69.7198C173.907 70.3555 174.064 71.0994 174.064 71.9517C174.064 72.7969 173.907 73.5355 173.595 74.1676C173.286 74.7997 172.853 75.2915 172.295 75.6431C171.741 75.9947 171.095 76.1705 170.356 76.1705ZM170.356 75.0412C170.917 75.0412 171.379 74.8974 171.741 74.6097C172.103 74.3221 172.372 73.9439 172.546 73.4751C172.72 73.0064 172.807 72.4986 172.807 71.9517C172.807 71.4048 172.72 70.8952 172.546 70.4229C172.372 69.9506 172.103 69.5689 171.741 69.2777C171.379 68.9865 170.917 68.8409 170.356 68.8409C169.795 68.8409 169.334 68.9865 168.971 69.2777C168.609 69.5689 168.341 69.9506 168.167 70.4229C167.993 70.8952 167.906 71.4048 167.906 71.9517C167.906 72.4986 167.993 73.0064 168.167 73.4751C168.341 73.9439 168.609 74.3221 168.971 74.6097C169.334 74.8974 169.795 75.0412 170.356 75.0412ZM179.541 67.8182V68.8835H175.301V67.8182H179.541ZM176.537 65.858H177.794V73.6562C177.794 74.0114 177.845 74.2777 177.948 74.4553C178.055 74.6293 178.19 74.7464 178.353 74.8068C178.52 74.8636 178.696 74.892 178.88 74.892C179.019 74.892 179.132 74.8849 179.221 74.8707C179.31 74.853 179.381 74.8388 179.434 74.8281L179.69 75.9574C179.605 75.9893 179.486 76.0213 179.333 76.0533C179.18 76.0888 178.987 76.1065 178.752 76.1065C178.397 76.1065 178.049 76.0302 177.708 75.8775C177.371 75.7248 177.091 75.4922 176.867 75.1797C176.647 74.8672 176.537 74.473 176.537 73.9972V65.858ZM182.865 71.0781V76H181.608V65.0909H182.865V69.0966H182.971C183.163 68.674 183.451 68.3384 183.834 68.0898C184.221 67.8377 184.736 67.7116 185.379 67.7116C185.936 67.7116 186.425 67.8235 186.844 68.0472C187.263 68.2674 187.588 68.6065 187.819 69.0646C188.053 69.5192 188.17 70.098 188.17 70.8011V76H186.913V70.8864C186.913 70.2365 186.744 69.734 186.407 69.3789C186.073 69.0202 185.61 68.8409 185.017 68.8409C184.605 68.8409 184.235 68.9279 183.909 69.1019C183.586 69.2759 183.33 69.5298 183.142 69.8636C182.957 70.1974 182.865 70.6023 182.865 71.0781ZM196.542 76L194.049 67.8182H195.37L197.139 74.0824H197.224L198.971 67.8182H200.314L202.04 74.0611H202.125L203.893 67.8182H205.214L202.721 76H201.486L199.696 69.7145H199.568L197.778 76H196.542ZM209.922 76.1705C209.183 76.1705 208.535 75.9947 207.977 75.6431C207.423 75.2915 206.99 74.7997 206.678 74.1676C206.369 73.5355 206.214 72.7969 206.214 71.9517C206.214 71.0994 206.369 70.3555 206.678 69.7198C206.99 69.0842 207.423 68.5906 207.977 68.239C208.535 67.8874 209.183 67.7116 209.922 67.7116C210.66 67.7116 211.307 67.8874 211.861 68.239C212.418 68.5906 212.851 69.0842 213.16 69.7198C213.473 70.3555 213.629 71.0994 213.629 71.9517C213.629 72.7969 213.473 73.5355 213.16 74.1676C212.851 74.7997 212.418 75.2915 211.861 75.6431C211.307 75.9947 210.66 76.1705 209.922 76.1705ZM209.922 75.0412C210.483 75.0412 210.944 74.8974 211.307 74.6097C211.669 74.3221 211.937 73.9439 212.111 73.4751C212.285 73.0064 212.372 72.4986 212.372 71.9517C212.372 71.4048 212.285 70.8952 212.111 70.4229C211.937 69.9506 211.669 69.5689 211.307 69.2777C210.944 68.9865 210.483 68.8409 209.922 68.8409C209.361 68.8409 208.899 68.9865 208.537 69.2777C208.175 69.5689 207.906 69.9506 207.732 70.4229C207.558 70.8952 207.471 71.4048 207.471 71.9517C207.471 72.4986 207.558 73.0064 207.732 73.4751C207.906 73.9439 208.175 74.3221 208.537 74.6097C208.899 74.8974 209.361 75.0412 209.922 75.0412ZM215.548 76V67.8182H216.763V69.054H216.848C216.997 68.6491 217.267 68.3207 217.657 68.0685C218.048 67.8164 218.488 67.6903 218.978 67.6903C219.071 67.6903 219.186 67.6921 219.325 67.6957C219.463 67.6992 219.568 67.7045 219.639 67.7116V68.9901C219.596 68.9794 219.499 68.9634 219.346 68.9421C219.197 68.9173 219.039 68.9048 218.872 68.9048C218.474 68.9048 218.119 68.9883 217.807 69.1552C217.498 69.3185 217.253 69.5458 217.071 69.837C216.894 70.1246 216.805 70.4531 216.805 70.8224V76H215.548ZM222.386 65.0909V76H221.129V65.0909H222.386ZM227.778 76.1705C227.096 76.1705 226.494 75.9982 225.972 75.6538C225.45 75.3058 225.042 74.8157 224.747 74.1836C224.453 73.5479 224.305 72.7969 224.305 71.9304C224.305 71.071 224.453 70.3253 224.747 69.6932C225.042 69.0611 225.452 68.5728 225.978 68.2283C226.503 67.8839 227.111 67.7116 227.799 67.7116C228.332 67.7116 228.753 67.8004 229.062 67.978C229.374 68.152 229.612 68.3509 229.776 68.5746C229.943 68.7947 230.072 68.9759 230.165 69.1179H230.271V65.0909H231.528V76H230.314V74.7429H230.165C230.072 74.892 229.941 75.0803 229.77 75.3075C229.6 75.5312 229.357 75.7319 229.041 75.9094C228.725 76.0835 228.304 76.1705 227.778 76.1705ZM227.949 75.0412C228.453 75.0412 228.879 74.9098 229.227 74.647C229.575 74.3807 229.84 74.0131 230.021 73.5444C230.202 73.0721 230.292 72.527 230.292 71.9091C230.292 71.2983 230.204 70.7638 230.026 70.3058C229.848 69.8441 229.586 69.4854 229.238 69.2298C228.89 68.9705 228.46 68.8409 227.949 68.8409C227.416 68.8409 226.972 68.9776 226.617 69.2511C226.265 69.521 226.001 69.8885 225.823 70.3537C225.649 70.8153 225.562 71.3338 225.562 71.9091C225.562 72.4915 225.651 73.0206 225.829 73.4964C226.01 73.9687 226.276 74.3452 226.628 74.6257C226.983 74.9027 227.423 75.0412 227.949 75.0412ZM239.801 69.6506L238.671 69.9702C238.6 69.782 238.495 69.5991 238.357 69.4215C238.222 69.2404 238.037 69.0913 237.803 68.9741C237.569 68.8569 237.269 68.7983 236.903 68.7983C236.402 68.7983 235.985 68.9137 235.651 69.1445C235.321 69.3718 235.156 69.6612 235.156 70.0128C235.156 70.3253 235.269 70.5721 235.497 70.7532C235.724 70.9343 236.079 71.0852 236.562 71.206L237.776 71.5043C238.508 71.6818 239.053 71.9535 239.412 72.3192C239.77 72.6815 239.95 73.1484 239.95 73.7202C239.95 74.1889 239.815 74.608 239.545 74.9773C239.278 75.3466 238.906 75.6378 238.426 75.8509C237.947 76.0639 237.389 76.1705 236.754 76.1705C235.919 76.1705 235.228 75.9893 234.682 75.6271C234.135 75.2649 233.788 74.7358 233.643 74.0398L234.836 73.7415C234.95 74.1818 235.165 74.5121 235.481 74.7322C235.8 74.9524 236.217 75.0625 236.732 75.0625C237.318 75.0625 237.783 74.9382 238.128 74.6896C238.476 74.4375 238.65 74.1357 238.65 73.7841C238.65 73.5 238.551 73.2621 238.352 73.0703C238.153 72.875 237.847 72.7294 237.435 72.6335L236.072 72.3139C235.323 72.1364 234.772 71.8612 234.421 71.4883C234.073 71.1119 233.899 70.6413 233.899 70.0767C233.899 69.6151 234.028 69.2067 234.287 68.8516C234.55 68.4964 234.907 68.2177 235.358 68.0153C235.813 67.8129 236.328 67.7116 236.903 67.7116C237.712 67.7116 238.348 67.8892 238.81 68.2443C239.275 68.5994 239.605 69.0682 239.801 69.6506ZM249.385 76.1705C248.646 76.1705 247.998 75.9947 247.44 75.6431C246.886 75.2915 246.453 74.7997 246.141 74.1676C245.832 73.5355 245.677 72.7969 245.677 71.9517C245.677 71.0994 245.832 70.3555 246.141 69.7198C246.453 69.0842 246.886 68.5906 247.44 68.239C247.998 67.8874 248.646 67.7116 249.385 67.7116C250.123 67.7116 250.77 67.8874 251.324 68.239C251.881 68.5906 252.314 69.0842 252.623 69.7198C252.936 70.3555 253.092 71.0994 253.092 71.9517C253.092 72.7969 252.936 73.5355 252.623 74.1676C252.314 74.7997 251.881 75.2915 251.324 75.6431C250.77 75.9947 250.123 76.1705 249.385 76.1705ZM249.385 75.0412C249.946 75.0412 250.407 74.8974 250.77 74.6097C251.132 74.3221 251.4 73.9439 251.574 73.4751C251.748 73.0064 251.835 72.4986 251.835 71.9517C251.835 71.4048 251.748 70.8952 251.574 70.4229C251.4 69.9506 251.132 69.5689 250.77 69.2777C250.407 68.9865 249.946 68.8409 249.385 68.8409C248.824 68.8409 248.362 68.9865 248 69.2777C247.637 69.5689 247.369 69.9506 247.195 70.4229C247.021 70.8952 246.934 71.4048 246.934 71.9517C246.934 72.4986 247.021 73.0064 247.195 73.4751C247.369 73.9439 247.637 74.3221 248 74.6097C248.362 74.8974 248.824 75.0412 249.385 75.0412ZM258.654 67.8182V68.8835H254.244V67.8182H258.654ZM255.565 76V66.6889C255.565 66.2202 255.675 65.8295 255.895 65.517C256.115 65.2045 256.401 64.9702 256.753 64.8139C257.104 64.6577 257.475 64.5795 257.866 64.5795C258.175 64.5795 258.427 64.6044 258.622 64.6541C258.818 64.7038 258.963 64.75 259.059 64.7926L258.697 65.8793C258.633 65.858 258.544 65.8313 258.431 65.7994C258.321 65.7674 258.175 65.7514 257.994 65.7514C257.578 65.7514 257.278 65.8562 257.094 66.0657C256.913 66.2752 256.822 66.5824 256.822 66.9872V76H255.565ZM265.892 65.0909V76H264.635V65.0909H265.892ZM271.625 76.1705C270.837 76.1705 270.157 75.9964 269.585 75.6484C269.017 75.2969 268.578 74.8068 268.269 74.1783C267.964 73.5462 267.811 72.8111 267.811 71.973C267.811 71.1349 267.964 70.3963 268.269 69.7571C268.578 69.1143 269.008 68.6136 269.558 68.255C270.112 67.8928 270.758 67.7116 271.497 67.7116C271.923 67.7116 272.344 67.7827 272.759 67.9247C273.175 68.0668 273.553 68.2976 273.894 68.6172C274.235 68.9332 274.507 69.3523 274.709 69.8743C274.911 70.3963 275.013 71.0391 275.013 71.8026V72.3352H268.706V71.2486H273.734C273.734 70.7869 273.642 70.375 273.457 70.0128C273.276 69.6506 273.017 69.3647 272.68 69.1552C272.346 68.9457 271.952 68.8409 271.497 68.8409C270.996 68.8409 270.563 68.9652 270.197 69.2138C269.835 69.4588 269.556 69.7784 269.361 70.1726C269.166 70.5668 269.068 70.9893 269.068 71.4403V72.1648C269.068 72.7827 269.175 73.3065 269.388 73.7362C269.604 74.1623 269.904 74.4872 270.288 74.7109C270.671 74.9311 271.117 75.0412 271.625 75.0412C271.955 75.0412 272.253 74.995 272.52 74.9027C272.79 74.8068 273.022 74.6648 273.218 74.4766C273.413 74.2848 273.564 74.0469 273.67 73.7628L274.885 74.1037C274.757 74.5156 274.542 74.8778 274.24 75.1903C273.938 75.4993 273.566 75.7408 273.122 75.9148C272.678 76.0852 272.179 76.1705 271.625 76.1705ZM279.333 76.1918C278.814 76.1918 278.344 76.0941 277.921 75.8988C277.498 75.6999 277.163 75.4141 276.914 75.0412C276.666 74.6648 276.541 74.2102 276.541 73.6776C276.541 73.2088 276.634 72.8288 276.818 72.5376C277.003 72.2429 277.25 72.0121 277.559 71.8452C277.868 71.6783 278.209 71.554 278.582 71.4723C278.958 71.3871 279.336 71.3196 279.716 71.2699C280.213 71.206 280.616 71.158 280.925 71.1261C281.238 71.0906 281.465 71.032 281.607 70.9503C281.753 70.8686 281.826 70.7266 281.826 70.5241V70.4815C281.826 69.956 281.682 69.5476 281.394 69.2564C281.11 68.9652 280.679 68.8196 280.1 68.8196C279.5 68.8196 279.029 68.951 278.688 69.2138C278.347 69.4766 278.108 69.7571 277.969 70.0554L276.776 69.6293C276.989 69.1321 277.273 68.745 277.628 68.468C277.987 68.1875 278.377 67.9922 278.8 67.8821C279.226 67.7685 279.645 67.7116 280.057 67.7116C280.32 67.7116 280.622 67.7436 280.963 67.8075C281.307 67.8679 281.639 67.994 281.959 68.1857C282.282 68.3775 282.55 68.6669 282.763 69.054C282.976 69.4411 283.083 69.9595 283.083 70.6094V76H281.826V74.892H281.762C281.676 75.0696 281.534 75.2596 281.335 75.462C281.137 75.6644 280.872 75.8366 280.542 75.9787C280.212 76.1207 279.809 76.1918 279.333 76.1918ZM279.524 75.0625C280.022 75.0625 280.441 74.9648 280.782 74.7695C281.126 74.5742 281.385 74.3221 281.559 74.0131C281.737 73.7042 281.826 73.3793 281.826 73.0384V71.8878C281.772 71.9517 281.655 72.0103 281.474 72.0636C281.296 72.1133 281.09 72.1577 280.856 72.1967C280.625 72.2322 280.4 72.2642 280.18 72.2926C279.963 72.3175 279.787 72.3388 279.652 72.3565C279.326 72.3991 279.02 72.4684 278.736 72.5643C278.456 72.6566 278.228 72.7969 278.054 72.9851C277.884 73.1697 277.799 73.4219 277.799 73.7415C277.799 74.1783 277.96 74.5085 278.283 74.7322C278.61 74.9524 279.024 75.0625 279.524 75.0625ZM285.377 76V67.8182H286.592V69.054H286.677C286.826 68.6491 287.096 68.3207 287.487 68.0685C287.877 67.8164 288.317 67.6903 288.808 67.6903C288.9 67.6903 289.015 67.6921 289.154 67.6957C289.292 67.6992 289.397 67.7045 289.468 67.7116V68.9901C289.425 68.9794 289.328 68.9634 289.175 68.9421C289.026 68.9173 288.868 68.9048 288.701 68.9048C288.303 68.9048 287.948 68.9883 287.636 69.1552C287.327 69.3185 287.082 69.5458 286.901 69.837C286.723 70.1246 286.634 70.4531 286.634 70.8224V76H285.377ZM292.215 71.0781V76H290.958V67.8182H292.173V69.0966H292.279C292.471 68.6811 292.762 68.3473 293.153 68.0952C293.543 67.8395 294.048 67.7116 294.666 67.7116C295.22 67.7116 295.704 67.8253 296.12 68.0526C296.535 68.2763 296.858 68.6172 297.089 69.0753C297.32 69.5298 297.435 70.1051 297.435 70.8011V76H296.178V70.8864C296.178 70.2436 296.011 69.7429 295.678 69.3842C295.344 69.022 294.886 68.8409 294.303 68.8409C293.902 68.8409 293.543 68.9279 293.227 69.1019C292.915 69.2759 292.668 69.5298 292.487 69.8636C292.306 70.1974 292.215 70.6023 292.215 71.0781ZM299.733 76V67.8182H300.99V76H299.733ZM300.372 66.4545C300.127 66.4545 299.915 66.3711 299.738 66.2042C299.564 66.0373 299.477 65.8366 299.477 65.6023C299.477 65.3679 299.564 65.1673 299.738 65.0004C299.915 64.8335 300.127 64.75 300.372 64.75C300.617 64.75 300.826 64.8335 301 65.0004C301.178 65.1673 301.267 65.3679 301.267 65.6023C301.267 65.8366 301.178 66.0373 301 66.2042C300.826 66.3711 300.617 66.4545 300.372 66.4545ZM304.549 71.0781V76H303.292V67.8182H304.507V69.0966H304.613C304.805 68.6811 305.096 68.3473 305.487 68.0952C305.877 67.8395 306.382 67.7116 307 67.7116C307.554 67.7116 308.038 67.8253 308.454 68.0526C308.869 68.2763 309.192 68.6172 309.423 69.0753C309.654 69.5298 309.769 70.1051 309.769 70.8011V76H308.512V70.8864C308.512 70.2436 308.345 69.7429 308.012 69.3842C307.678 69.022 307.22 68.8409 306.637 68.8409C306.236 68.8409 305.877 68.9279 305.561 69.1019C305.249 69.2759 305.002 69.5298 304.821 69.8636C304.64 70.1974 304.549 70.6023 304.549 71.0781ZM315.369 79.2386C314.762 79.2386 314.24 79.1605 313.803 79.0043C313.366 78.8516 313.002 78.6491 312.711 78.397C312.423 78.1484 312.194 77.8821 312.024 77.598L313.025 76.8949C313.139 77.044 313.283 77.2145 313.457 77.4062C313.631 77.6016 313.869 77.7702 314.171 77.9123C314.476 78.0579 314.876 78.1307 315.369 78.1307C316.03 78.1307 316.575 77.9709 317.004 77.6513C317.434 77.3317 317.649 76.831 317.649 76.1491V74.4872H317.542C317.45 74.6364 317.319 74.821 317.148 75.0412C316.981 75.2578 316.74 75.4513 316.424 75.6218C316.111 75.7887 315.689 75.8722 315.156 75.8722C314.496 75.8722 313.903 75.7159 313.377 75.4034C312.855 75.0909 312.441 74.6364 312.136 74.0398C311.834 73.4432 311.683 72.7187 311.683 71.8665C311.683 71.0284 311.83 70.2987 312.125 69.6772C312.42 69.0522 312.83 68.5692 313.356 68.2283C313.881 67.8839 314.488 67.7116 315.177 67.7116C315.71 67.7116 316.133 67.8004 316.445 67.978C316.761 68.152 317.003 68.3509 317.17 68.5746C317.34 68.7947 317.471 68.9759 317.564 69.1179H317.692V67.8182H318.906V76.2344C318.906 76.9375 318.746 77.5092 318.427 77.9496C318.111 78.3935 317.684 78.7184 317.148 78.9244C316.616 79.1339 316.023 79.2386 315.369 79.2386ZM315.327 74.7429C315.831 74.7429 316.257 74.6275 316.605 74.3967C316.953 74.1658 317.218 73.8338 317.399 73.4006C317.58 72.9673 317.67 72.4489 317.67 71.8452C317.67 71.2557 317.581 70.7354 317.404 70.2844C317.226 69.8335 316.964 69.4801 316.616 69.2244C316.268 68.9687 315.838 68.8409 315.327 68.8409C314.794 68.8409 314.35 68.9759 313.995 69.2457C313.643 69.5156 313.379 69.8778 313.201 70.3324C313.027 70.7869 312.94 71.2912 312.94 71.8452C312.94 72.4134 313.029 72.9158 313.206 73.3526C313.388 73.7859 313.654 74.1268 314.006 74.3754C314.361 74.6204 314.801 74.7429 315.327 74.7429Z" fill="#43505B"/>
</svg>
